# xmcd CD database file
#
# Track frame offsets:
#	150
#	28031
#	54515
#	82177
#	111204
#	138591
#	163524
#	179751
#	202498
#	228418
#	249133
#	271262
#
# Disc length: 3917 seconds
#
# Revision: 0
# Processed by: cddbd v1.5.2PL0 Copyright (c) Steve Scherf et al.
# Submitted via: CDex 1.51
#
DISCID=ae0f4b0c
DTITLE=Andrea Tessa - Tribute
DYEAR=2007
DGENRE=Jazz
TTITLE0=The nearness of you
TTITLE1=Willow, weep for me
TTITLE2=My one and only love
TTITLE3=The way you look tonight
TTITLE4=Cry me a river
TTITLE5=New york state of mind
TTITLE6=The man I love
TTITLE7=La mentira
TTITLE8=Someone to watch over me
TTITLE9=Come rain come shine
TTITLE10=My funny valentine
TTITLE11=Yellow days
EXTD=YEAR: 2007
EXTT0=
EXTT1=
EXTT2=
EXTT3=
EXTT4=
EXTT5=
EXTT6=
EXTT7=
EXTT8=
EXTT9=
EXTT10=
EXTT11=
PLAYORDER=
